<mxfile host="app.diagrams.net" agent="Mozilla/5.0 (Windows NT 10.0; Win64; x64) AppleWebKit/537.36 (KHTML, like Gecko) Chrome/131.0.0.0 Safari/537.36" version="24.9.1">
  <diagram name="Página-1" id="QHBrT9kueZy9A2Koy9Ed">
    <mxGraphModel dx="1595" dy="650" grid="1" gridSize="10" guides="1" tooltips="1" connect="1" arrows="1" fold="1" page="0" pageScale="1" pageWidth="827" pageHeight="1169" math="0" shadow="0">
      <root>
        <mxCell id="0" />
        <mxCell id="1" parent="0" />
        <mxCell id="_Cwa0Al-0GBUoEVH-ARS-1" value="InterfaceUsuario" style="rounded=0;whiteSpace=wrap;html=1;" vertex="1" parent="1">
          <mxGeometry x="-180" y="80" width="120" height="40" as="geometry" />
        </mxCell>
        <mxCell id="_Cwa0Al-0GBUoEVH-ARS-2" value="" style="endArrow=none;dashed=1;html=1;rounded=0;entryX=0.5;entryY=1;entryDx=0;entryDy=0;" edge="1" parent="1" target="_Cwa0Al-0GBUoEVH-ARS-1">
          <mxGeometry width="50" height="50" relative="1" as="geometry">
            <mxPoint x="-120" y="680" as="sourcePoint" />
            <mxPoint x="-120" y="380" as="targetPoint" />
          </mxGeometry>
        </mxCell>
        <mxCell id="_Cwa0Al-0GBUoEVH-ARS-3" value="controlador: ControladorVendas" style="rounded=0;whiteSpace=wrap;html=1;" vertex="1" parent="1">
          <mxGeometry y="80" width="200" height="40" as="geometry" />
        </mxCell>
        <mxCell id="_Cwa0Al-0GBUoEVH-ARS-4" value="" style="endArrow=none;dashed=1;html=1;rounded=0;entryX=0.5;entryY=1;entryDx=0;entryDy=0;" edge="1" parent="1">
          <mxGeometry width="50" height="50" relative="1" as="geometry">
            <mxPoint x="99.5" y="680" as="sourcePoint" />
            <mxPoint x="99.5" y="120" as="targetPoint" />
          </mxGeometry>
        </mxCell>
        <mxCell id="_Cwa0Al-0GBUoEVH-ARS-5" value="&lt;u&gt;:BancoDeDados&lt;/u&gt;" style="rounded=0;whiteSpace=wrap;html=1;" vertex="1" parent="1">
          <mxGeometry x="280" y="80" width="200" height="40" as="geometry" />
        </mxCell>
        <mxCell id="_Cwa0Al-0GBUoEVH-ARS-6" value="" style="endArrow=none;dashed=1;html=1;rounded=0;entryX=0.5;entryY=1;entryDx=0;entryDy=0;" edge="1" parent="1">
          <mxGeometry width="50" height="50" relative="1" as="geometry">
            <mxPoint x="379.5" y="670" as="sourcePoint" />
            <mxPoint x="379.5" y="110" as="targetPoint" />
          </mxGeometry>
        </mxCell>
        <mxCell id="_Cwa0Al-0GBUoEVH-ARS-7" value="" style="rounded=0;whiteSpace=wrap;html=1;" vertex="1" parent="1">
          <mxGeometry x="94" y="260" width="10" height="310" as="geometry" />
        </mxCell>
        <mxCell id="_Cwa0Al-0GBUoEVH-ARS-8" value="" style="endArrow=classic;html=1;rounded=0;exitX=1;exitY=0;exitDx=0;exitDy=0;entryX=0;entryY=0;entryDx=0;entryDy=0;" edge="1" parent="1" source="_Cwa0Al-0GBUoEVH-ARS-7" target="_Cwa0Al-0GBUoEVH-ARS-11">
          <mxGeometry width="50" height="50" relative="1" as="geometry">
            <mxPoint x="200" y="420" as="sourcePoint" />
            <mxPoint x="370" y="260" as="targetPoint" />
          </mxGeometry>
        </mxCell>
        <mxCell id="_Cwa0Al-0GBUoEVH-ARS-9" value="&lt;u&gt;editarProduto(id: String)&lt;/u&gt;" style="text;html=1;align=center;verticalAlign=middle;whiteSpace=wrap;rounded=0;" vertex="1" parent="1">
          <mxGeometry x="140" y="237" width="190" height="30" as="geometry" />
        </mxCell>
        <mxCell id="_Cwa0Al-0GBUoEVH-ARS-11" value="" style="rounded=0;whiteSpace=wrap;html=1;" vertex="1" parent="1">
          <mxGeometry x="375" y="260" width="10" height="310" as="geometry" />
        </mxCell>
        <mxCell id="_Cwa0Al-0GBUoEVH-ARS-12" value="" style="endArrow=none;dashed=1;html=1;rounded=0;entryX=0;entryY=1;entryDx=0;entryDy=0;exitX=1;exitY=1;exitDx=0;exitDy=0;startArrow=open;startFill=0;" edge="1" parent="1" source="_Cwa0Al-0GBUoEVH-ARS-7" target="_Cwa0Al-0GBUoEVH-ARS-11">
          <mxGeometry width="50" height="50" relative="1" as="geometry">
            <mxPoint x="110" y="290" as="sourcePoint" />
            <mxPoint x="260" y="260" as="targetPoint" />
          </mxGeometry>
        </mxCell>
        <mxCell id="_Cwa0Al-0GBUoEVH-ARS-13" value="" style="rounded=0;whiteSpace=wrap;html=1;" vertex="1" parent="1">
          <mxGeometry x="380" y="320" width="10" height="31" as="geometry" />
        </mxCell>
        <mxCell id="_Cwa0Al-0GBUoEVH-ARS-14" value="" style="endArrow=classic;html=1;rounded=0;exitX=1.227;exitY=0.065;exitDx=0;exitDy=0;entryX=1;entryY=0;entryDx=0;entryDy=0;exitPerimeter=0;" edge="1" parent="1" source="_Cwa0Al-0GBUoEVH-ARS-11" target="_Cwa0Al-0GBUoEVH-ARS-13">
          <mxGeometry width="50" height="50" relative="1" as="geometry">
            <mxPoint x="430" y="340" as="sourcePoint" />
            <mxPoint x="400" y="330" as="targetPoint" />
            <Array as="points">
              <mxPoint x="440" y="280" />
              <mxPoint x="440" y="320" />
            </Array>
          </mxGeometry>
        </mxCell>
        <mxCell id="_Cwa0Al-0GBUoEVH-ARS-16" value="&lt;u&gt;verificarID(id: String): Produto&lt;/u&gt;" style="text;html=1;align=center;verticalAlign=middle;whiteSpace=wrap;rounded=0;" vertex="1" parent="1">
          <mxGeometry x="428" y="287" width="190" height="30" as="geometry" />
        </mxCell>
        <mxCell id="_Cwa0Al-0GBUoEVH-ARS-17" value="Alt" style="shape=umlFrame;whiteSpace=wrap;html=1;pointerEvents=0;" vertex="1" parent="1">
          <mxGeometry x="60" y="310" width="520" height="310" as="geometry" />
        </mxCell>
        <mxCell id="_Cwa0Al-0GBUoEVH-ARS-19" value="Se o objeto retornado não for nulo" style="text;html=1;align=center;verticalAlign=middle;whiteSpace=wrap;rounded=0;" vertex="1" parent="1">
          <mxGeometry x="100" y="310" width="230" height="30" as="geometry" />
        </mxCell>
        <mxCell id="_Cwa0Al-0GBUoEVH-ARS-21" value="" style="endArrow=none;dashed=1;html=1;rounded=0;exitX=0;exitY=0.419;exitDx=0;exitDy=0;exitPerimeter=0;" edge="1" parent="1" source="_Cwa0Al-0GBUoEVH-ARS-17">
          <mxGeometry width="50" height="50" relative="1" as="geometry">
            <mxPoint x="200" y="490" as="sourcePoint" />
            <mxPoint x="580" y="440" as="targetPoint" />
          </mxGeometry>
        </mxCell>
        <mxCell id="_Cwa0Al-0GBUoEVH-ARS-22" value="Se retornar um objeto valido" style="text;html=1;align=center;verticalAlign=middle;whiteSpace=wrap;rounded=0;" vertex="1" parent="1">
          <mxGeometry x="86" y="440" width="230" height="30" as="geometry" />
        </mxCell>
        <mxCell id="_Cwa0Al-0GBUoEVH-ARS-23" value="" style="endArrow=none;dashed=1;html=1;rounded=0;entryX=0;entryY=1;entryDx=0;entryDy=0;exitX=1;exitY=1;exitDx=0;exitDy=0;startArrow=open;startFill=0;" edge="1" parent="1">
          <mxGeometry width="50" height="50" relative="1" as="geometry">
            <mxPoint x="103" y="422" as="sourcePoint" />
            <mxPoint x="374" y="422" as="targetPoint" />
          </mxGeometry>
        </mxCell>
        <mxCell id="_Cwa0Al-0GBUoEVH-ARS-25" value="Se o objeto retornado não for nulo" style="text;html=1;align=center;verticalAlign=middle;whiteSpace=wrap;rounded=0;" vertex="1" parent="1">
          <mxGeometry x="120" y="400" width="230" height="30" as="geometry" />
        </mxCell>
      </root>
    </mxGraphModel>
  </diagram>
</mxfile>
